# xmcd
#
# Track frame offsets: 
#        150
#        19606
#        39538
#        77416
#
# Disc length: 1550 seconds
#
# Revision: 0
# Processed by: cddbd v1.5.2PL0 Copyright (c) Steve Scherf et al.
# Submitted via: ExactAudioCopy v1.0b4
#
DISCID=1f060c04
DTITLE=Epsilon Projekt - Musik AB
DYEAR=1900
DGENRE=
TTITLE0=Musik AB
TTITLE1=Double Bubble
TTITLE2=(Coming) From Outside
TTITLE3=Tribute To Epsilon
EXTD=
EXTT0=
EXTT1=
EXTT2=
EXTT3=
PLAYORDER=
